# xmcd
# 
# Track frame offsets:
#     182
#     43642
#     100715
#     124275
#     155647
#     180077
# 
# Disc length: 2751
# 
# Revision: 20
# Processed by: cddbd v1.5.2PL0 Copyright (c) Steve Scherf et al.
# Submitted via: fre:ac v1.0.17
# 
DISCID=420abd06
DTITLE=Jimi Hendrix - Band Of Gypsys
DYEAR=1970
DGENRE=Rock
TTITLE0=Who Knows
TTITLE1=Machine Gun
TTITLE2=Changes
TTITLE3=Power To Love
TTITLE4=Message To Love
TTITLE5=We Gotta Live Together
EXTD=YEAR: 1970
EXTT0=
EXTT1=
EXTT2=
EXTT3=
EXTT4=
EXTT5=
PLAYORDER=
